<svg width="284" height="79" viewBox="0 0 284 79" fill="none" xmlns="http://www.w3.org/2000/svg">
<path d="M94.29 35.8105C94.0269 35.7935 93.7631 35.7935 93.5 35.8105H92.67L92 35.9105V12.5102H98.07C99.8394 12.4606 101.608 12.6422 103.33 13.0502C104.418 13.2804 105.39 13.89 106.07 14.7702C106.69 15.7835 106.981 16.9647 106.9 18.1505C106.963 19.0015 106.839 19.8555 106.537 20.6535C106.234 21.4525 105.761 22.1745 105.15 22.7705C103.537 24.0155 101.621 24.8095 99.6 25.0705L98.16 25.2905C97.78 25.2905 97.16 25.2305 96.41 25.2005L94.98 25.1305V35.8805C94.7487 35.8725 94.5182 35.8485 94.29 35.8105ZM98.38 23.8105C99.8899 23.7085 101.311 23.0615 102.38 21.9905C102.853 21.4995 103.223 20.9195 103.469 20.2845C103.714 19.6495 103.83 18.9715 103.81 18.2905C103.857 17.1829 103.502 16.096 102.81 15.2302C102.076 14.4021 101.044 13.8986 99.94 13.8302C98.2954 13.7141 96.6446 13.7141 95 13.8302V23.8305C96.124 23.9305 97.2544 23.9405 98.38 23.8605V23.8105Z" fill="white"/>
<path d="M127.609 35.8104C127.43 35.8284 127.249 35.8284 127.069 35.8104H125.539L124.709 35.9104C123.339 32.0804 122.119 29.0204 121.099 26.6904H112.429C110.739 30.8704 109.629 33.9304 109.049 35.9104L108.479 35.8104C108.246 35.7934 108.012 35.7934 107.779 35.8104H107.069L106.529 35.9104L117.249 12H118.009L128.309 35.8804C128.074 35.8734 127.84 35.8504 127.609 35.8104ZM113.069 25.1904H120.589L116.769 16.49L113.069 25.1904Z" fill="white"/>
<path d="M139.47 12.51C144.47 12.51 147.03 14.23 147.03 17.64C147.066 18.4834 146.904 19.3234 146.557 20.0924C146.209 20.8624 145.686 21.5394 145.03 22.0704C143.575 23.1964 141.852 23.9234 140.03 24.1804L147.11 33.1004L148.73 35.1004L149.37 35.9604L148.6 35.8604C148.41 35.8784 148.22 35.8784 148.03 35.8604H146.72C146.519 35.8694 146.319 35.8894 146.12 35.9204C145.887 35.9384 145.653 35.9384 145.42 35.9204C144.49 34.6104 143.79 33.6204 143.28 32.9204L139.28 27.6904L136.54 24.4704H135.23V35.9204L134.63 35.8204C134.481 35.8384 134.329 35.8384 134.18 35.8204H132.91L132.24 35.9204V12.51H139.47ZM139.66 23.0304C140.867 22.8254 141.97 22.2194 142.79 21.3104C143.619 20.4564 144.079 19.3104 144.07 18.1204C144.07 15.66 142.83 14.23 140.31 13.82C138.647 13.6709 136.976 13.6475 135.31 13.75V23.1904C136.759 23.3684 138.228 23.3144 139.66 23.0304Z" fill="white"/>
<path d="M159.44 22.9004C160.36 23.9504 161.83 25.5804 163.87 27.8104C165.91 30.0404 167.19 31.5104 167.79 32.2704L170.57 35.7204V35.9104L169.71 35.8104C169.377 35.7934 169.043 35.7934 168.71 35.8104H167.66L166.83 35.9104C165.83 34.4404 164.99 33.3904 164.44 32.7804L157.01 24.1104C156.893 24.0114 156.751 23.9454 156.6 23.9204C156.47 23.9204 156.41 23.9204 156.41 23.9804V35.9804L155.84 35.8804C155.691 35.8994 155.539 35.8994 155.39 35.8804H154.07L153.4 35.9804V12.51H154.07C154.35 12.5307 154.627 12.5742 154.9 12.64C155.13 12.64 155.38 12.57 155.67 12.54C155.913 12.5268 156.157 12.5268 156.4 12.54V23.0904C156.4 23.3504 156.72 23.2804 157.23 22.9004C157.886 22.3774 158.501 21.8054 159.07 21.1904L167.46 12.52H168.07C168.327 12.5379 168.582 12.5814 168.83 12.65L169.5 12.55C169.713 12.5372 169.927 12.5372 170.14 12.55L162.4 19.9804L159.44 22.9004Z" fill="white"/>
<path d="M99.24 44.3804C104.24 44.3804 106.79 46.1004 106.79 49.5104C106.825 50.3534 106.662 51.1924 106.314 51.9614C105.967 52.7304 105.445 53.4084 104.79 53.9404C103.334 55.0654 101.611 55.7924 99.79 56.0504L106.87 64.9704L108.49 66.9204L109.13 67.7804L108.37 67.6804C108.177 67.6984 107.983 67.6984 107.79 67.6804H106.5C106.299 67.6904 106.099 67.7104 105.9 67.7404C105.667 67.7544 105.433 67.7544 105.2 67.7404C104.27 66.4404 103.57 65.4504 103.06 64.7404L99.06 59.5104L96.3 56.3304H95V67.7804L94.39 67.6804C94.2406 67.6984 94.0894 67.6984 93.94 67.6804H92.67L92 67.7704V44.3804H99.24ZM99.43 54.9004C100.632 54.6954 101.731 54.0934 102.55 53.1904C103.367 52.3304 103.816 51.1854 103.8 50.0004C103.8 47.5404 102.55 46.1104 100.03 45.7004C98.3678 45.5454 96.6959 45.5224 95.03 45.6304V55.0404C96.4947 55.2294 97.9803 55.1824 99.43 54.9004Z" fill="white"/>
<path d="M121.72 54.5804C122.094 54.5884 122.468 54.5684 122.84 54.5204C123.22 54.5204 123.57 54.5204 123.92 54.4504C124.27 54.3804 124.53 54.3904 124.78 54.3904C124.772 54.6904 124.729 54.9894 124.65 55.2804C124.691 55.4284 124.724 55.5784 124.75 55.7304C124.763 55.8894 124.763 56.0504 124.75 56.2104L123.22 56.1104C122.71 56.1104 122.22 56.0504 121.69 56.0504H116.43V66.0504C117.13 66.0504 119.2 66.0504 122.61 65.9204C123.671 65.8904 124.728 65.7734 125.77 65.5704V66.0804C125.749 66.2644 125.705 66.4464 125.64 66.6204C125.64 66.7804 125.71 66.9704 125.74 67.1604C125.753 67.3194 125.753 67.4804 125.74 67.6404H113.43V44.3804H125.55V44.8204C125.55 45.0104 125.48 45.2104 125.45 45.3704C125.42 45.5304 125.45 45.7804 125.55 46.3704C124.541 46.1704 123.517 46.0534 122.49 46.0204L119 46.0004H116.43V54.5804H121.72Z" fill="white"/>
<path d="M132.261 65.0404C132.751 65.5664 133.343 65.9884 134.001 66.2804C134.731 66.5734 135.514 66.7134 136.301 66.6904C136.951 66.7084 137.597 66.5834 138.193 66.3244C138.789 66.0654 139.321 65.6774 139.751 65.1904C140.637 64.2384 141.117 62.9794 141.091 61.6804C141.135 61.0944 141.037 60.5074 140.803 59.9694C140.57 59.4304 140.208 58.9574 139.751 58.5904C138.509 57.7354 137.165 57.0394 135.751 56.5204C134.289 55.9874 132.935 55.1984 131.751 54.1904C131.27 53.6884 130.899 53.0924 130.662 52.4404C130.424 51.7874 130.325 51.0934 130.371 50.4004C130.31 49.4714 130.476 48.5424 130.854 47.6924C131.232 46.8424 131.811 46.0964 132.541 45.5204C134.119 44.3624 136.046 43.7804 138.001 43.8704C139.79 43.7884 141.547 44.3644 142.941 45.4904C142.781 45.8404 142.461 46.7704 141.991 48.3004H141.601C141.314 47.4074 140.755 46.6274 140.001 46.0704C139.143 45.5124 138.129 45.2454 137.108 45.3084C136.087 45.3714 135.113 45.7614 134.331 46.4204C133.922 46.7814 133.598 47.2294 133.382 47.7304C133.166 48.2314 133.063 48.7744 133.081 49.3204C133.041 49.8974 133.139 50.4764 133.367 51.0084C133.594 51.5404 133.945 52.0104 134.391 52.3804C135.622 53.2334 136.969 53.9074 138.391 54.3804C139.866 54.9024 141.245 55.6664 142.471 56.6404C142.96 57.1174 143.339 57.6964 143.582 58.3354C143.826 58.9734 143.928 59.6584 143.881 60.3404C143.903 61.7974 143.515 63.2324 142.761 64.4804C142.012 65.6684 140.93 66.6104 139.651 67.1904C138.316 67.8174 136.856 68.1354 135.381 68.1204C134.36 68.0884 133.349 67.9064 132.381 67.5804C131.421 67.3314 130.536 66.8544 129.801 66.1904C130.115 65.2124 130.339 64.2084 130.471 63.1904H130.821C131.227 63.8604 131.71 64.4814 132.261 65.0404Z" fill="white"/>
<path d="M149.77 44.3804C150.036 44.4004 150.3 44.4414 150.56 44.5004L151.39 44.4104C151.636 44.3974 151.883 44.3974 152.13 44.4104V67.8104L151.52 67.7104C151.37 67.7284 151.219 67.7284 151.07 67.7104H149.77L149.1 67.8004V44.3804H149.77Z" fill="white"/>
<path d="M166.85 44.3803C168.902 44.3353 170.955 44.3983 173 44.5703C174.392 44.7993 175.682 45.4443 176.7 46.4203C177.928 47.4653 178.897 48.7793 179.534 50.2603C180.17 51.7423 180.457 53.3503 180.37 54.9603C180.454 56.8553 180.11 58.7463 179.364 60.4913C178.618 62.2363 177.489 63.7903 176.06 65.0403C174.821 66.1263 173.317 66.8683 171.7 67.1903C169.743 67.5373 167.758 67.6983 165.77 67.6703H159.07V44.3803H166.85ZM165.73 66.3803C166.886 66.4083 168.041 66.3243 169.18 66.1303C170.195 66.0313 171.186 65.7603 172.11 65.3303C175.39 63.6703 177.02 60.4203 177.02 55.5403C177.127 53.5563 176.786 51.5733 176.02 49.7403C175.322 48.3083 174.118 47.1853 172.64 46.5903C170.661 45.8613 168.559 45.5213 166.45 45.5903C165.98 45.5903 165.37 45.5903 164.67 45.5903L162.15 45.6903V66.0903C163.31 66.1903 164.52 66.2503 165.73 66.3403V66.3803Z" fill="white"/>
<path d="M194.27 54.5804C194.641 54.5884 195.012 54.5684 195.38 54.5204C195.76 54.5204 196.11 54.5204 196.47 54.4504C196.83 54.3804 197.07 54.3904 197.33 54.3904C197.311 54.6894 197.267 54.9874 197.2 55.2804C197.2 55.4104 197.26 55.5704 197.29 55.7304C197.308 55.8894 197.308 56.0504 197.29 56.2104L195.76 56.1104C195.25 56.1104 194.76 56.0504 194.23 56.0504H189V66.0504C189.71 66.0504 191.78 66.0504 195.19 65.9204C196.248 65.8914 197.302 65.7734 198.34 65.5704V66.0804C198.318 66.2634 198.277 66.4444 198.22 66.6204C198.22 66.7804 198.28 66.9704 198.31 67.1604C198.323 67.3194 198.323 67.4804 198.31 67.6404H186V44.3804H198.11V44.8204C198.11 45.0104 198.05 45.2104 198.02 45.3704C197.99 45.5304 198.02 45.7804 198.11 46.3704C197.101 46.1704 196.078 46.0534 195.05 46.0204L191.61 45.9504H189V54.5304L194.27 54.5804Z" fill="white"/>
<path d="M222.08 67.7404C221.61 67.1404 221.03 66.4404 220.3 65.6404L205.54 49.3204H205.19V67.7804L204.74 67.6804C204.56 67.6624 204.38 67.6624 204.2 67.6804H203.69L203.25 67.7704V44.3804H204.58L220.81 61.9804H221.16V44.3804C221.74 44.4404 222.05 44.4704 222.16 44.5004L222.64 44.4104C222.786 44.3984 222.934 44.3984 223.08 44.4104V67.7704L222.08 67.7404Z" fill="white"/>
<path d="M240.661 68.1905C238.432 68.2375 236.228 67.7105 234.261 66.6605C232.456 65.6845 230.988 64.1855 230.051 62.3605C229.056 60.3515 228.562 58.1315 228.611 55.8905C228.568 53.6135 229.142 51.3675 230.271 49.3905C231.407 47.5955 233.035 46.1655 234.961 45.2705C236.999 44.2985 239.233 43.8095 241.491 43.8405C244.02 43.8355 246.522 44.3675 248.831 45.4005C248.529 46.2475 248.305 47.1215 248.161 48.0105H247.901C247.244 47.2235 246.43 46.5835 245.511 46.1305C244.274 45.4085 242.863 45.0415 241.431 45.0705C240.099 44.9955 238.769 45.2405 237.551 45.7855C236.333 46.3295 235.263 47.1575 234.431 48.2005C232.749 50.4375 231.881 53.1825 231.971 55.9805C231.935 57.9415 232.328 59.8865 233.121 61.6805C233.809 63.2175 234.934 64.5185 236.357 65.4205C237.78 66.3225 239.437 66.7845 241.121 66.7505C242.631 66.7755 244.127 66.4505 245.491 65.8005C246.521 65.3175 247.485 64.7055 248.361 63.9805L248.201 66.1405C245.939 67.5385 243.32 68.2505 240.661 68.1905Z" fill="white"/>
<path d="M261.739 54.5804C262.113 54.5884 262.488 54.5684 262.859 54.5204C263.239 54.5204 263.589 54.5204 263.939 54.4504C264.289 54.3804 264.549 54.3904 264.799 54.3904C264.792 54.6904 264.748 54.9894 264.669 55.2804C264.71 55.4284 264.744 55.5784 264.769 55.7304C264.782 55.8894 264.782 56.0504 264.769 56.2104L263.239 56.1104C262.729 56.1104 262.239 56.0504 261.709 56.0504H256.419V66.0504C257.119 66.0504 259.189 66.0504 262.599 65.9204C263.66 65.8904 264.717 65.7734 265.759 65.5704V66.0804C265.738 66.2644 265.694 66.4464 265.629 66.6204C265.629 66.7804 265.699 66.9704 265.729 67.1604C265.742 67.3194 265.742 67.4804 265.729 67.6404H253.449V44.3804H265.569V44.8204C265.569 45.0104 265.499 45.2104 265.469 45.3704C265.439 45.5304 265.469 45.7804 265.569 46.3704C264.56 46.1714 263.537 46.0544 262.509 46.0204L259.059 45.9504H256.449V54.5304L261.739 54.5804Z" fill="white"/>
<path d="M272.279 65.0405C272.781 65.5705 273.387 65.9925 274.059 66.2805C274.79 66.5725 275.572 66.7115 276.359 66.6905C276.999 66.7075 277.635 66.5865 278.224 66.3345C278.813 66.0825 279.34 65.7055 279.769 65.2305C280.655 64.2785 281.136 63.0195 281.109 61.7205C281.154 61.1345 281.055 60.5475 280.821 60.0095C280.588 59.4705 280.227 58.9975 279.769 58.6305C278.528 57.7755 277.184 57.0795 275.769 56.5605C274.308 56.0275 272.953 55.2385 271.769 54.2305C271.287 53.7305 270.916 53.1345 270.68 52.4815C270.444 51.8285 270.348 51.1325 270.399 50.4405C270.334 49.5125 270.497 48.5825 270.874 47.7325C271.25 46.8815 271.829 46.1365 272.559 45.5605C274.121 44.3975 276.033 43.8015 277.979 43.8705C279.768 43.7885 281.526 44.3645 282.919 45.4905C282.759 45.8405 282.439 46.7705 281.969 48.3005H281.619C281.363 47.6045 280.942 46.9805 280.393 46.4835C279.843 45.9855 279.18 45.6295 278.462 45.4445C277.744 45.2595 276.992 45.2515 276.27 45.4215C275.549 45.5915 274.879 45.9345 274.319 46.4205C273.91 46.7815 273.586 47.2295 273.37 47.7305C273.154 48.2315 273.051 48.7745 273.069 49.3205C273.029 49.8975 273.127 50.4765 273.355 51.0085C273.583 51.5405 273.934 52.0105 274.379 52.3805C275.61 53.2335 276.957 53.9075 278.379 54.3805C279.855 54.9025 281.233 55.6665 282.459 56.6405C282.948 57.1175 283.327 57.6965 283.571 58.3355C283.814 58.9735 283.916 59.6585 283.869 60.3405C283.896 61.7985 283.508 63.2345 282.749 64.4805C282.018 65.6725 280.954 66.6245 279.689 67.2205C278.354 67.8475 276.894 68.1655 275.419 68.1505C274.398 68.1185 273.387 67.9365 272.419 67.6105C271.465 67.3425 270.591 66.8485 269.869 66.1705C270.183 65.1925 270.407 64.1885 270.539 63.1705H270.889C271.278 63.8455 271.745 64.4725 272.279 65.0405Z" fill="white"/>
<path d="M39.855 78.5456C37.112 78.5395 34.377 78.2446 31.695 77.6657C26.714 76.6071 21.991 74.5772 17.7945 71.692C13.5985 68.8067 10.0123 65.1227 7.24088 60.8505C4.46958 56.5784 2.56749 51.8019 1.64339 46.7941C0.719289 41.7864 0.791287 36.6456 1.85529 31.6657C4.00349 21.6113 10.0579 12.8221 18.6864 7.2317C22.959 4.46359 27.735 2.56409 32.741 1.64168C37.748 0.719254 42.887 0.791975 47.865 1.85568C52.844 2.91939 57.564 4.95325 61.756 7.84115C65.949 10.729 69.531 14.4144 72.299 18.6868C75.067 22.9592 76.967 27.735 77.889 32.7415C78.812 37.7481 78.739 42.8872 77.675 47.8657C75.826 56.5315 71.065 64.3025 64.183 69.8847C57.302 75.4669 48.716 78.5236 39.855 78.5456ZM39.705 3.07568C33.109 3.09024 26.638 4.88244 20.9743 8.26371C15.3103 11.6449 10.6624 16.4903 7.51949 22.2899C4.37669 28.0895 2.85499 34.6291 3.11469 41.2204C3.37439 47.8118 5.40579 54.2113 8.99529 59.7457C12.9431 65.8351 18.6082 70.617 25.274 73.4865C31.94 76.3561 39.307 77.1844 46.443 75.8667C53.58 74.549 60.165 71.1445 65.367 66.0837C70.568 61.023 74.152 54.5334 75.665 47.4357C76.671 42.7232 76.738 37.8587 75.864 33.1201C74.989 28.3815 73.19 23.8616 70.569 19.8185C67.947 15.7754 64.555 12.2882 60.586 9.55616C56.616 6.8241 52.148 4.90066 47.435 3.89568C44.895 3.35118 42.304 3.07632 39.705 3.07568Z" fill="white" stroke="white" stroke-width="0.71" stroke-miterlimit="10"/>
<path d="M39.3651 77.9157C35.8351 70.8057 38.2951 63.2757 40.2651 57.2357C40.6651 55.9957 41.0451 54.8357 41.3551 53.7357C44.0951 44.0857 40.9551 39.0657 37.3551 33.2457C35.3111 30.2736 33.6511 27.0547 32.4151 23.6657C28.7351 12.3457 36.2051 1.96564 36.5151 1.53564L37.6951 2.38564C37.6151 2.48564 30.3551 12.6157 33.7951 23.1757C34.9841 26.4618 36.5801 29.5861 38.5451 32.4757C42.2051 38.3357 45.6651 43.8657 42.7551 54.1357C42.4351 55.2657 42.0551 56.4357 41.6451 57.6857C39.6451 63.7757 37.4051 70.6857 40.6451 77.2657L39.3651 77.9157Z" fill="white" stroke="white" stroke-width="0.71" stroke-miterlimit="10"/>
<path d="M33.7854 27.0455C32.6754 20.9455 34.1054 16.4956 38.2954 13.0456C44.1754 8.23556 42.5054 2.66556 42.4354 2.38556L43.8554 1.94556C43.9454 2.21556 45.9154 8.71556 39.2554 14.1856C35.5154 17.2456 34.2554 21.2556 35.2554 26.7856L33.7854 27.0455Z" fill="white" stroke="white" stroke-width="0.71" stroke-miterlimit="10"/>
<path d="M35.7448 30.6657C35.7448 30.5757 31.5248 21.3957 39.8848 17.4957C47.4748 13.9457 49.6948 10.0157 47.8048 3.49569L49.2048 3.08569C51.2848 10.2957 48.6848 15.0057 40.4948 18.8357C33.4948 22.1157 36.9048 29.7557 37.0548 30.0757L35.7448 30.6657Z" fill="white" stroke="white" stroke-width="0.71" stroke-miterlimit="10"/>
<path d="M34.3152 77.0957L32.8552 76.9758C33.4552 69.4658 32.7552 65.6257 29.7452 59.8657C28.4752 57.4257 26.1152 55.0757 23.3852 52.3657C19.8555 48.8657 15.8555 44.8958 12.8555 39.3958C6.12548 27.3158 12.8555 12.7658 13.1455 12.1458L14.4655 12.7658C14.3955 12.9158 7.75548 27.2757 14.1255 38.6857C17.1255 44.0057 20.9955 47.8958 24.4452 51.3358C27.2552 54.1358 29.6852 56.5557 31.0652 59.1857C34.1652 65.1657 34.9252 69.3457 34.3152 77.0957Z" fill="white" stroke="white" stroke-width="0.71" stroke-miterlimit="10"/>
<path d="M31.1352 62.7956C29.5552 58.7956 27.3852 58.3856 22.6152 57.4356C20.7955 57.0656 18.5355 56.6656 15.8555 55.8556C6.28547 53.0956 2.26547 46.8556 2.10547 46.5656L3.33546 45.7856C3.33546 45.8456 7.24547 51.8656 16.2555 54.4556C18.8555 55.2056 21.0152 55.6656 22.8552 56.0056C27.6752 57.0056 30.5752 57.5456 32.4452 62.2656L31.1352 62.7956Z" fill="white" stroke="white" stroke-width="0.71" stroke-miterlimit="10"/>
<path d="M15.716 43.8555C2.32603 39.9155 2.71603 29.9855 2.71603 29.8555L4.16602 29.9255C4.16602 30.2855 3.91602 38.8255 16.166 42.4255L15.716 43.8555Z" fill="white" stroke="white" stroke-width="0.71" stroke-miterlimit="10"/>
<path d="M10.9043 34.7655C10.1643 31.6555 11.6243 29.6655 13.3143 27.3655C14.7968 25.5305 15.9443 23.4487 16.7043 21.2155C17.8339 17.5369 17.8339 13.604 16.7043 9.92553L18.0543 9.41553C19.336 13.3961 19.35 17.6765 18.0943 21.6655C17.2916 24.059 16.0692 26.2905 14.4843 28.2555C12.8943 30.4355 11.7343 32.0055 12.3143 34.4555L10.9043 34.7655Z" fill="white" stroke="white" stroke-width="0.71" stroke-miterlimit="10"/>
<path d="M24.5459 53.4756C21.2119 49.9798 19.1397 45.472 18.6562 40.6656C18.1262 35.1556 20.9562 30.5456 23.9459 25.6656C25.4039 23.4218 26.7099 21.0833 27.8559 18.6656C31.0059 11.3756 28.8559 3.74562 28.8559 3.66562L30.2559 3.25562C31.6129 8.5452 31.2449 14.1297 29.2059 19.1956C28.0399 21.704 26.7029 24.1296 25.2059 26.4556C22.3559 31.1156 19.6562 35.5256 20.1362 40.5556C20.6082 44.9953 22.5099 49.1613 25.5559 52.4256L24.5459 53.4756Z" fill="white" stroke="white" stroke-width="0.71" stroke-miterlimit="10"/>
<path d="M23.1657 29.8556L21.8557 29.2556C22.8557 26.9856 22.4357 25.3956 21.8557 23.1756C21.0527 20.7025 20.7132 18.102 20.856 15.5056C21.0857 11.7456 23.4157 5.50558 23.5157 5.21558L24.8557 5.72558C24.8557 5.79558 22.5057 12.0556 22.2857 15.5956C22.1737 18.0334 22.5127 20.4709 23.2857 22.7856C23.8557 25.1056 24.4057 27.1056 23.1657 29.8556Z" fill="white" stroke="white" stroke-width="0.71" stroke-miterlimit="10"/>
<path d="M42.9344 53.5458L41.5645 53.0658C44.3945 44.9558 50.7445 41.0058 56.3445 37.5158C58.6365 36.1638 60.8284 34.65 62.9044 32.9858C69.2744 27.5758 68.9044 16.5958 68.9044 16.4858L70.3544 16.4258C70.3544 16.9058 70.7844 28.2258 63.8844 34.0958C61.7574 35.8074 59.5084 37.3615 57.1544 38.7458C51.4544 42.2758 45.6044 45.9258 42.9344 53.5458Z" fill="white" stroke="white" stroke-width="0.71" stroke-miterlimit="10"/>
<path d="M39.1651 68.0256H37.7051C37.8471 65.6256 38.7821 63.3407 40.3641 61.5304C41.9471 59.7201 44.0861 58.4872 46.4451 58.0256C48.6101 57.5962 50.8021 57.3188 53.0051 57.1956C62.0051 56.4356 73.2851 55.4856 76.7451 42.7356L78.1551 43.1156C74.4151 56.8456 62.1551 57.8856 53.1551 58.6456C51.0261 58.7662 48.9081 59.0335 46.8151 59.4456C44.7671 59.8197 42.9021 60.8669 41.5161 62.4211C40.1301 63.9754 39.3031 65.9478 39.1651 68.0256Z" fill="white" stroke="white" stroke-width="0.71" stroke-miterlimit="10"/>
<path d="M65.8551 63.8954C62.6741 63.7611 59.5621 62.9208 56.7451 61.4354C50.4051 58.3554 47.0052 59.3654 46.9752 59.3754L46.5352 57.9854C46.6952 57.9854 50.5352 56.8054 57.3752 60.1254C63.7452 63.2054 68.5452 62.8954 70.0052 60.9954L71.1552 61.8754C70.2652 63.0954 68.4451 63.8954 65.8551 63.8954Z" fill="white" stroke="white" stroke-width="0.71" stroke-miterlimit="10"/>
<path d="M48.7855 44.7756L47.8555 43.6656C48.2055 43.3456 56.2855 35.9356 51.2955 29.2656C49.9535 27.5552 48.9875 25.581 48.4605 23.4719C47.9335 21.3628 47.8565 19.1662 48.2355 17.0256C48.7085 14.6619 49.6555 12.4183 51.0185 10.43C52.3805 8.44162 54.1315 6.74954 56.1655 5.45557L56.9455 6.68557C55.0815 7.87126 53.4755 9.42132 52.2245 11.2428C50.9735 13.0642 50.1035 15.1196 49.6655 17.2856C49.3225 19.2302 49.3945 21.2253 49.8775 23.1401C50.3595 25.0549 51.2415 26.8459 52.4655 28.3956C58.2055 36.1656 48.8555 44.6656 48.7855 44.7756Z" fill="white" stroke="white" stroke-width="0.71" stroke-miterlimit="10"/>
<path d="M52.2553 30.9358C51.3853 26.5558 53.7053 23.5058 58.0153 19.7358C60.6073 17.2598 62.2523 13.956 62.6653 10.3958L64.1153 10.5158C63.6763 14.4544 61.8503 18.1085 58.9653 20.8258C54.3653 24.8258 53.0253 27.3458 53.6753 30.6558L52.2553 30.9358Z" fill="white" stroke="white" stroke-width="0.71" stroke-miterlimit="10"/>
<path d="M50.1454 43.5355L49.2754 42.3755C53.4154 39.2955 54.5954 39.1255 58.9654 38.4955C60.3854 38.2955 62.1554 38.0455 64.5054 37.6155C75.6554 35.6655 74.8554 28.6655 74.8554 28.3155L76.2954 28.1155C76.2954 28.2055 77.3554 36.7855 64.7854 39.0455C62.4154 39.4755 60.6254 39.7355 59.1954 39.9355C54.8554 40.5555 53.9854 40.6655 50.1454 43.5355Z" fill="white" stroke="white" stroke-width="0.71" stroke-miterlimit="10"/>
<path d="M43.5856 51.5656L42.2656 50.9656C42.2656 50.8656 46.8656 41.1456 60.2656 44.6356C67.4756 46.5156 71.6456 44.4256 73.4956 43.0156C74.4316 42.3473 75.2046 41.4773 75.7586 40.4699C76.3126 39.4625 76.6326 38.3435 76.6956 37.1956H78.1456C78.0866 38.5713 77.7166 39.9157 77.0636 41.1281C76.4106 42.3404 75.4916 43.3891 74.3756 44.1956C72.3756 45.7656 67.7056 48.0956 59.8956 46.0656C47.7156 42.8656 43.7556 51.2056 43.5856 51.5656Z" fill="white" stroke="white" stroke-width="0.71" stroke-miterlimit="10"/>
<path d="M51.7653 29.1655C51.6453 28.8455 48.8253 21.4455 52.1653 15.6655C54.0023 12.3114 56.7423 9.5398 60.0753 7.66553L60.7054 8.96553C57.6554 10.7255 55.1394 13.2794 53.4254 16.3555C50.4254 21.5155 53.0953 28.5255 53.1253 28.5955L51.7653 29.1655Z" fill="white" stroke="white" stroke-width="0.71" stroke-miterlimit="10"/>
<path d="M41.1952 59.0455L39.7852 58.6655C39.7852 58.5755 42.0652 50.1455 52.6752 50.9155C55.5352 51.1255 58.0851 51.4955 60.3251 51.8155C66.0051 52.6455 69.7652 53.1955 72.6852 50.3655L73.6852 51.3655C70.2452 54.6955 65.9951 54.0755 60.1051 53.2155C57.8851 52.8955 55.3752 52.5255 52.5652 52.3255C43.2152 51.6655 41.2752 58.7455 41.1952 59.0455Z" fill="white" stroke="white" stroke-width="0.71" stroke-miterlimit="10"/>
</svg>
