<svg xmlns="http://www.w3.org/2000/svg" width="45.732" height="45.732" viewBox="0 0 45.732 45.732"><path d="M43.17,25.725h1.848a.715.715,0,0,0,0-1.429H43.17L41.777,22.9a5.036,5.036,0,0,0-.957-.75,5.036,5.036,0,0,0,.957-.75l1.393-1.393h1.848a.715.715,0,0,0,0-1.429H43.17l-1.393-1.393a4.969,4.969,0,0,0-3.537-1.465h-1.8V6a5.638,5.638,0,0,0,1.429-3.735V.715A.715.715,0,0,0,37.158,0H35.607a5.639,5.639,0,0,0-3.735,1.429H13.861A5.639,5.639,0,0,0,10.125,0H8.575A.715.715,0,0,0,7.86.715V2.265A5.638,5.638,0,0,0,9.289,6v9.72h-1.8a4.969,4.969,0,0,0-3.537,1.465L2.562,18.579H.715a.715.715,0,1,0,0,1.429H2.562L3.956,21.4a5.036,5.036,0,0,0,.957.75,5.036,5.036,0,0,0-.957.75L2.562,24.3H.715a.715.715,0,1,0,0,1.429H2.562l1.393,1.393a5.036,5.036,0,0,0,.957.75,5.036,5.036,0,0,0-.957.75L2.562,30.012H.715a.715.715,0,1,0,0,1.429H2.562l1.393,1.393a5.036,5.036,0,0,0,.958.751,5.043,5.043,0,0,0-.96.752L2.562,35.729H.715a.715.715,0,1,0,0,1.429H2.562l1.391,1.391a5.042,5.042,0,0,0,.96.752,5.042,5.042,0,0,0-.96.752L2.562,41.445H.715a.715.715,0,1,0,0,1.429H2.562l1.391,1.391A4.977,4.977,0,0,0,7.5,45.732H38.237a4.977,4.977,0,0,0,3.542-1.467l1.391-1.391h1.848a.715.715,0,0,0,0-1.429H43.17l-1.391-1.391a5.043,5.043,0,0,0-.96-.752,5.043,5.043,0,0,0,.96-.752l1.391-1.391h1.848a.715.715,0,0,0,0-1.429H43.17l-1.391-1.391a5.043,5.043,0,0,0-.96-.752,5.036,5.036,0,0,0,.958-.751l1.393-1.393h1.848a.715.715,0,0,0,0-1.429H43.17l-1.393-1.393a5.036,5.036,0,0,0-.957-.75,5.036,5.036,0,0,0,.957-.75ZM38.24,17.15A3.549,3.549,0,0,1,40.766,18.2l1.1,1.1-1.1,1.1a3.549,3.549,0,0,1-2.526,1.046h-1.8V17.15ZM17.15,2.858H28.583V5.717H17.15ZM9.289,1.429h.836a4.2,4.2,0,0,1,2.946,1.22l.715.715a.715.715,0,0,0,1.22-.505h.715V6.431a.715.715,0,0,0,.715.715H29.3a.715.715,0,0,0,.715-.715V2.858h.715a.715.715,0,0,0,1.22.505l.715-.715a4.2,4.2,0,0,1,2.946-1.22h.836v.836a4.2,4.2,0,0,1-1.22,2.946l-.715.715a.715.715,0,0,0,.505,1.22V35.729a.715.715,0,0,0-.505,1.22l.715.715h0a4.077,4.077,0,0,1,1.058,1.823l0,.013a4.01,4.01,0,0,1,.158,1.11v.836h-.836a4.2,4.2,0,0,1-2.946-1.22l-.715-.715a.715.715,0,0,0-1.22.505h-.715V36.443a.715.715,0,0,0-.715-.715H16.435a.715.715,0,0,0-.715.715v3.573h-.715a.715.715,0,0,0-1.22-.505l-.715.715a4.2,4.2,0,0,1-2.946,1.22H9.289v-.836a4.01,4.01,0,0,1,.158-1.11l0-.013a4.077,4.077,0,0,1,1.058-1.823h0l.715-.715a.715.715,0,0,0-.505-1.22V7.146a.715.715,0,0,0,.505-1.22l-.715-.715a4.2,4.2,0,0,1-1.22-2.946ZM28.583,40.016H17.15V37.158H28.583ZM4.966,20.391l-1.1-1.1,1.1-1.1A3.549,3.549,0,0,1,7.492,17.15h1.8v4.287h-1.8A3.549,3.549,0,0,1,4.966,20.391Zm0,5.717-1.1-1.1,1.1-1.1a3.549,3.549,0,0,1,2.526-1.046h1.8v4.287h-1.8A3.549,3.549,0,0,1,4.966,26.107Zm0,5.717-1.1-1.1,1.1-1.1a3.549,3.549,0,0,1,2.526-1.046h1.8V32.87h-1.8A3.549,3.549,0,0,1,4.966,31.824Zm0,5.715-1.1-1.1,1.1-1.1A3.556,3.556,0,0,1,7.5,34.3H9.289v2.574a5.52,5.52,0,0,0-1.045,1.713H7.5A3.556,3.556,0,0,1,4.964,37.538Zm35.8,3.526,1.1,1.1-1.1,1.1A3.556,3.556,0,0,1,38.237,44.3H7.5a3.556,3.556,0,0,1-2.532-1.048l-1.1-1.1,1.1-1.1A3.556,3.556,0,0,1,7.5,40.016h.4a5.383,5.383,0,0,0-.033.593V42.16a.715.715,0,0,0,.715.715h1.551a5.639,5.639,0,0,0,3.735-1.429H31.872a5.639,5.639,0,0,0,3.735,1.429h1.551a.715.715,0,0,0,.715-.715V40.609a5.384,5.384,0,0,0-.033-.593h.4A3.556,3.556,0,0,1,40.768,41.064Zm1.1-4.621-1.1,1.1a3.556,3.556,0,0,1-2.532,1.048h-.748a5.52,5.52,0,0,0-1.045-1.713V34.3h1.794a3.556,3.556,0,0,1,2.532,1.048Zm-1.1-6.814,1.1,1.1-1.1,1.1A3.549,3.549,0,0,1,38.24,32.87h-1.8V28.583h1.8A3.549,3.549,0,0,1,40.766,29.629Zm-4.323-2.476V22.866h1.8a3.549,3.549,0,0,1,2.526,1.046l1.1,1.1-1.1,1.1a3.549,3.549,0,0,1-2.526,1.046Z" fill="#e2d104"/><path d="M176.715,97.429h12.862a.715.715,0,1,0,0-1.429H176.715a.715.715,0,1,0,0,1.429Z" transform="translate(-160.279 -87.425)" fill="#e2d104"/><path d="M176.715,129.429h12.862a.715.715,0,0,0,0-1.429H176.715a.715.715,0,0,0,0,1.429Z" transform="translate(-160.279 -116.567)" fill="#e2d104"/><path d="M136.715,177.15h1.816a2.851,2.851,0,0,0,4.942,0h6.491a2.856,2.856,0,1,0,4.615-3.318v-2.1l1.429,1.429v1.133a.715.715,0,0,0,1.429,0v-1.429h0v-5.716h0v-1.429a.715.715,0,0,0-1.429,0v1.133l-1.429,1.429v-2.562a.715.715,0,0,0-.715-.715h-2.19a5.723,5.723,0,0,0-5.487-5q-.091,0-.184,0t-.184,0a5.723,5.723,0,0,0-5.487,5h-1.475a.715.715,0,0,0-.505.209l-2.144,2.144a.715.715,0,0,0-.209.505v8.575A.715.715,0,0,0,136.715,177.15Zm19.293-8.279v2.266L154.875,170Zm-4.287-2.44h1.429V170h0v2.949a2.85,2.85,0,0,0-.715-.091h-.715Zm-.245,8.235.01-.009a1.417,1.417,0,0,1,1.9,0l.01.009a1.393,1.393,0,0,1,.469,1.055,1.431,1.431,0,0,1-1.429,1.429,1.41,1.41,0,0,1-1.339-.946l-.01-.027a1.262,1.262,0,0,1-.08-.457A1.393,1.393,0,0,1,151.475,174.666Zm-1.9,1.055H143.86a2.84,2.84,0,0,0-.385-1.429h6.482A2.854,2.854,0,0,0,149.577,175.721ZM146,161.429a2.144,2.144,0,1,1-2.144,2.144A2.146,2.146,0,0,1,146,161.429Zm-3.564,1.907c-.005.078-.009.157-.009.236a3.573,3.573,0,0,0,7.146,0c0-.079,0-.158-.009-.236a4.287,4.287,0,1,1-7.128,0Zm-.723,6.155a5.7,5.7,0,0,0,8.575,0v3.371h-8.575Zm-.715,4.8a1.431,1.431,0,0,1,1.429,1.429,1.262,1.262,0,0,1-.08.457l-.01.027a1.421,1.421,0,0,1-2.678,0l-.01-.027a1.262,1.262,0,0,1-.08-.457A1.431,1.431,0,0,1,141,174.291Zm-3.573-.715h.715a.715.715,0,0,0,0-1.429h-.715v-.715h.715a.715.715,0,0,0,0-1.429h-.715v-.715h.715a.715.715,0,1,0,0-1.429h-.419l1.429-1.429h1.133v6.522a2.863,2.863,0,0,0-2.144,2.768h-.715Z" transform="translate(-123.852 -145.709)" fill="#e2d104"/></svg>