<svg xmlns:xlink="http://www.w3.org/1999/xlink" xmlns="http://www.w3.org/2000/svg" viewBox="0 0 972.06 731.45" width="972.06"  height="731.45" ><defs><style>.cls-1,.cls-2{fill:#231f20;}.cls-1{fill-rule:evenodd;}</style></defs><g id="Layer_2" data-name="Layer 2"><g id="Layer_1-2" data-name="Layer 1"><path class="cls-1" d="M464,80.32l1.07-.53L464,77.31l-6.9-15.57,6.9-3.18,8.67-3.89,8.14,18L489.16,69,471.29,28.66,464,32l-1.23.35L464,35l5.66,12.74L464,50.24,454,54.67l-6.72-15.22-8.49,3.72L456.6,83.5Zm-81,58.55,25.65-21.58-5-6L385,127l-3.19-3.89-4.07-4.78,4.07-3.54,12.38-10.43L389,98.54l-7.25,6.19-9.2,7.61-5.84-7.08,15-12.74,2.83-2.3-2.83-3.54-2.12-2.47L354.7,105.08l27.07,32.2Zm144.53-90a18.81,18.81,0,0,0,10.09,4.42c1.06,0,1.94.18,3,.18a16.45,16.45,0,0,0,5.13-.71,19.22,19.22,0,0,0,7.6-3.19,17.84,17.84,0,0,0,7.08-8.31c1.77-4.42,2.12-9.73.71-15.92-1.42-6-3.72-10.62-7.43-13.8a18.7,18.7,0,0,0-10.09-4.42,17.82,17.82,0,0,0-3-.18,27.32,27.32,0,0,0-5.31.53,23.51,23.51,0,0,0-7.43,3.36,17.24,17.24,0,0,0-7.26,8.32c-1.94,4.42-2.12,9.73-.7,15.74C521.35,41,523.83,45.64,527.54,48.83Zm2.66-29A10.78,10.78,0,0,1,537.1,15a12,12,0,0,1,3.54-.18,10,10,0,0,1,5,1.42c3.18,2.12,5.48,5.66,6.72,11.14s.89,9.73-1.24,12.92a10.82,10.82,0,0,1-6.9,4.77,8.31,8.31,0,0,1-3.53.36,8.63,8.63,0,0,1-5-1.6c-3.18-1.94-5.48-5.66-6.72-11C527.72,27.42,528.07,23.18,530.2,19.81ZM336,197.61l5.31-7.26-12.21-9-1.77-1.06,1.77-2.3,3.89-5.48c1.95-2.66,3.72-3.9,5.13-3.9,1.24,0,3.19,1.07,5.84,3a32.39,32.39,0,0,0,4.43,2.83,14.66,14.66,0,0,0,3.36,1.6l6-8.32-.88-.53a2.42,2.42,0,0,1-2.66,0,33.75,33.75,0,0,1-5.66-3.72c-1.77-1.23-3.36-2.12-4.6-2.83a9.49,9.49,0,0,0-2.83-.7c-1.24-.18-2.83.35-4.95,1.59a8.74,8.74,0,0,0-.18-6.37,12.4,12.4,0,0,0-4.24-5.31,10.4,10.4,0,0,0-2.66-1.59,11.24,11.24,0,0,0-7.61-.53c-3,.71-5.66,2.65-8,6l-13.09,18.05,28.66,20.87ZM311.71,169l6.9-9.38c1.42-1.94,3-3,4.6-3a4.83,4.83,0,0,1,3.72,1.24,7.55,7.55,0,0,1,2.12,1.95,4.94,4.94,0,0,1,.71,2.12,6.74,6.74,0,0,1-.71,3,13.92,13.92,0,0,1-1.41,2.12l-6.37,8.85ZM777.16,87.22l3.54-6.9-15.39-8-6.37-3.19,5.31-10.08,1.06.53,18,9.2,3.54-7.08L767.79,52l4.07-8.14,20.87,10.62,3.54-7.08L767.43,32.73,765.31,37,747.44,72l17.87,9.2ZM614.23,44.58a22,22,0,0,0,7.08,1.06c5.83.18,10.26-1.06,13.26-3.71,3.37-2.66,5-6.9,5.14-12.56L640.24.71,630.86.53l-.53,29a8.72,8.72,0,0,1-2.3,6.37c-1.42,1.42-3.72,2-6.72,2a7.88,7.88,0,0,1-5.66-2.3c-1.42-1.59-2.13-3.72-2.13-6.72L614.05.18,604.68,0l-.53,29.37a16,16,0,0,0,3.18,10.79A15.55,15.55,0,0,0,614.23,44.58Zm80.85,11c5.3,1.24,9.73.88,13.44-1.06,3.54-1.77,5.66-4.78,6.72-9,.71-3.54.36-6.55-1.59-9-1.24-1.77-3.71-3.53-7.07-5.13l-9.91-5.13a7,7,0,0,1-1.59-.88,1.79,1.79,0,0,1-1.06-.89c-.89-.88-1.06-2.12-.71-3.71a4.33,4.33,0,0,1,1.77-2.83,13.72,13.72,0,0,1,1.59-.71,11,11,0,0,1,5.31.18c3.36.7,5.66,2.12,6.72,4.24a7.78,7.78,0,0,1,.53,4.25l8.67,2A14.45,14.45,0,0,0,716.49,18q-3.47-6.09-12.21-8a21,21,0,0,0-9.2-.53,13.75,13.75,0,0,0-5.49,2.13,13.86,13.86,0,0,0-5,7.78c-.88,4.25-.18,7.61,2.12,10.26A32.15,32.15,0,0,0,695.08,35l.35.18,4.42,2.12A33.55,33.55,0,0,1,705,40.51a4,4,0,0,1,1.42,4.07,4.72,4.72,0,0,1-3.89,3.72,13.41,13.41,0,0,1-6.37-.36c-.35,0-.71-.17-1.06-.17-2.83-.89-5-2.3-6-4.07a7.32,7.32,0,0,1-.53-4.78L680,37a13.38,13.38,0,0,0,1.06,9.91C683.4,51.13,688,54,695.08,55.55ZM281.29,262a38.66,38.66,0,0,0,8,2.13,22.73,22.73,0,0,0,7.78-.36,18,18,0,0,0,9.55-5.84,27.74,27.74,0,0,0,4.25-6.9,25.86,25.86,0,0,0,1.77-8.13,18.1,18.1,0,0,0-2.83-10.62c-2.48-4.07-6.72-7.25-12.56-9.73a33.21,33.21,0,0,0-8-2.12,23,23,0,0,0-7.79.35,18.32,18.32,0,0,0-9.37,5.84,23.3,23.3,0,0,0-4.25,6.9,21.74,21.74,0,0,0-1.77,8.14,18.55,18.55,0,0,0,2.65,10.79C271.38,256.34,275.45,259.53,281.29,262Zm-6.37-25.47a11.14,11.14,0,0,1,5.83-6.19,13.59,13.59,0,0,1,8.5-.53,26.75,26.75,0,0,1,4.6,1.41c5.13,2.12,8.49,4.78,9.9,8.49a10.52,10.52,0,0,1-.17,8.32,10.65,10.65,0,0,1-5.84,6.19,13.42,13.42,0,0,1-8.49.53,16.08,16.08,0,0,1-4.43-1.42c-5.13-1.94-8.49-4.77-9.9-8.31A11.73,11.73,0,0,1,274.92,236.53ZM247.85,414.85a12.71,12.71,0,0,0,8.85,2.48c3.71-.35,6.54-1.59,8.31-3.89.35-.35.53-.71.88-1.06,1.07-1.95,1.95-5.13,2.66-9.91l.88-4.78a27.09,27.09,0,0,1,1.42-6,3.69,3.69,0,0,1,3.54-2.3,4.77,4.77,0,0,1,4.77,2.47,17.84,17.84,0,0,1,1.42,6.2c.35,3.53-.36,6.19-1.95,8a7.75,7.75,0,0,1-4.42,1.94l.53,8.85c3.89-.36,6.9-1.59,9.2-4.07q5-5,4.25-15.92c-.36-5.31-1.95-9.56-5-12.56q-4-4.25-10.61-3.72a10.62,10.62,0,0,0-7.61,3.36c-.18.18-.35.53-.53.71a22.25,22.25,0,0,0-3,8.32l-1.77,11a5.32,5.32,0,0,1-1.06,3,3.89,3.89,0,0,1-3.18,1.95,4.91,4.91,0,0,1-4.43-2.3,10.33,10.33,0,0,1-1.41-5c-.35-3.53.35-6.19,1.94-7.78a8,8,0,0,1,4.07-1.77l-.7-8.84a12.73,12.73,0,0,0-8.85,4.24c-3.18,3.19-4.6,8-4.07,14C242.37,407.78,244.31,412.2,247.85,414.85Zm39.27-72.71,1.24-9.2-19.64-2.65,2.48-17.16,18.05,2.65,1.59.18,1.24-9.2-2.83-.35L265,303.05l-16.63-2.3-1.24,9,16.45,2.48-2.29,17-16.63-2.3-1.24,9L265,339Z" fill="#FFFFFF"></path><path class="cls-2" d="M345.49,553.17l9.08,12.35c2.35,3.2,4,5.91,3.38,9.3a10.45,10.45,0,0,1-10.38,8A8.56,8.56,0,0,1,343,581l-.08.06a6.57,6.57,0,0,1,.45,3.57c-.38,2.71-2.37,4.18-4.21,5.6L336,592.75a8.73,8.73,0,0,0-3.2,4.09l-2.45-3.32a8.71,8.71,0,0,1,3.08-3.74l3-2.39c1.93-1.55,3.54-2.67,3.71-5a8,8,0,0,0-1.89-5l-6.75-9.19-12.81,9.41-2.26-3.08ZM334.08,566.3l6.6,9c1.4,1.91,3.37,3.54,5.23,3.9a7.63,7.63,0,0,0,5.52-1.56,6,6,0,0,0,2.76-4.34c.23-2.47-1.57-4.93-2.58-6.3l-6.47-8.81Z" stroke="#FFFFFF" fill="#FFFFFF" stroke-width="0.71px"></path><path class="cls-2" d="M388.47,626.06l-2.25,2.35-14-13.34-9.55,10,15.7,15-2.24,2.35-18.47-17.65,25-26.11,18,17.22-2.25,2.35-15.26-14.58-8.66,9.06Z" stroke="#FFFFFF" fill="#FFFFFF" stroke-width="0.71px"></path><path class="cls-2" d="M411.64,655.88a8.59,8.59,0,0,0-1.48,6.47c.54,2.9,2.95,5.52,5.35,7.13s5.36,2.66,7.69,2.24a6.78,6.78,0,0,0,4.38-2.91,6.65,6.65,0,0,0,1.05-4.45c-.4-2.45-3-5.2-4.13-6.25l-2.62-2.57c-2.22-2.17-4.88-4.95-5.39-8.27a8.21,8.21,0,0,1,1.44-5.94A9.33,9.33,0,0,1,426,637c3.81.07,7.51,2.43,8.71,3.23,4.37,2.93,5.88,6.06,6.34,8.24a11.32,11.32,0,0,1-1.32,7.62L436.6,654a7.91,7.91,0,0,0,.81-5.48c-.55-2.23-2.55-4.25-4.73-5.72a13.15,13.15,0,0,0-5.79-2.21,6.27,6.27,0,0,0-5.48,2.79,5.15,5.15,0,0,0-.85,3.78c.36,2,2.05,4,3.84,5.75l2.46,2.45c2.82,2.83,5.13,5.5,5.78,8.42a8.8,8.8,0,0,1-1.52,7,10.38,10.38,0,0,1-6.91,4.74c-4,.61-7.94-1.6-10.21-3.12-3.09-2.07-6.69-5-7.59-9.63a12.18,12.18,0,0,1,2-9Z" stroke="#FFFFFF" fill="#FFFFFF" stroke-width="0.71px"></path><path class="cls-2" d="M467.29,664.64l1.33-3,25.32,11.4-1.34,3-10.92-4.92-13.49,30-3.48-1.56,13.49-30Z" stroke="#FFFFFF" fill="#FFFFFF" stroke-width="0.71px"></path><path class="cls-2" d="M507.3,716l-4-1.09,22.77-31.23,4.14,1.13,3.71,38.47-4-1.1-.95-11L513.76,707Zm21.41-8.27-1.55-20-11.49,16.39Z" stroke="#FFFFFF" fill="#FFFFFF" stroke-width="0.71px"></path><path class="cls-2" d="M573.61,693.34l-2,21.57c-.29,3.13-.47,6.85,1.46,9.41,1.48,1.95,4.41,3.3,7.45,3.58a10.54,10.54,0,0,0,7.85-2.07c2.32-2.12,2.9-5.64,3.22-9.08l2-21.57,3.8.34-2,22c-.33,3.6-1,8.15-4.81,11.21-3.35,2.7-7.19,2.71-10.37,2.41-5.76-.52-8.51-2.64-9.88-4.17-2.72-3.09-2.92-7.62-2.52-12l2-22Z" stroke="#FFFFFF" fill="#FFFFFF" stroke-width="0.71px"></path><path class="cls-2" d="M629.62,695.47l15.27-1.37c4-.35,7.12-.33,9.71,1.93a10.45,10.45,0,0,1,1.48,13,8.52,8.52,0,0,1-3.89,2.94v.1a6.61,6.61,0,0,1,3.3,1.47c2.12,1.72,2.34,4.19,2.6,6.5l.47,4A8.68,8.68,0,0,0,660.4,729l-4.11.37a8.62,8.62,0,0,1-1.6-4.57l-.5-3.79c-.32-2.46-.45-4.42-2.33-5.75a8,8,0,0,0-5.27-1l-11.36,1,1.42,15.83-3.8.34ZM634.94,712l11.11-1c2.36-.21,4.77-1,6-2.46a7.51,7.51,0,0,0,1.53-5.52,6,6,0,0,0-2.28-4.62c-2-1.47-5-1.2-6.73-1.05l-10.89,1Z" stroke="#FFFFFF" fill="#FFFFFF" stroke-width="0.71px"></path><path class="cls-2" d="M698.5,721.78l-4,1.11,3.54-38.48,4.13-1.15,22.91,31.12-4,1.12-6.46-9-15.16,4.22Zm14.15-18.07-11.57-16.34-1.46,20Z" stroke="#FFFFFF" fill="#FFFFFF" stroke-width="0.71px"></path><path class="cls-2" d="M761.56,700l-3.43,1.67-15.88-32.43,3.94-1.93,31.57,18.38-13.36-27.3,3.43-1.67,15.88,32.43-3.89,1.91L748.2,672.7Z" stroke="#FFFFFF" fill="#FFFFFF" stroke-width="0.71px"></path><path class="cls-2" d="M794.4,644.43l-1.92-2.63,22.41-16.38,1.92,2.63-9.66,7.06,19.39,26.54-3.08,2.25-19.4-26.54Z" stroke="#FFFFFF" fill="#FFFFFF" stroke-width="0.71px"></path><path class="cls-2" d="M878,592.14a3.16,3.16,0,0,1,1.15,2.12,3,3,0,0,1-.75,2.28,3,3,0,0,1-2.1,1.13,3.11,3.11,0,0,1-2.3-.79,3,3,0,0,1-.33-4.33,3,3,0,0,1,2.08-1.15A3,3,0,0,1,878,592.14Z" stroke="#FFFFFF" fill="#FFFFFF" stroke-width="0.71px"></path><path class="cls-2" d="M940.61,521.07,930.5,541.28l-32.31-16.16,1.71-3.42,29.4,14.71,8.4-16.8Z" stroke="#FFFFFF" fill="#FFFFFF" stroke-width="0.71px"></path><path class="cls-2" d="M922.59,476.91c-1.22-2.24-2.57-6.41-.83-12.3,1.64-5.54,4.73-8.5,7.27-10,2.93-1.72,8.09-3.31,16-1,7.62,2.26,11.35,6.38,12.93,9.43,2.32,4.34,1.65,8.77.64,12.19-1.75,5.89-4.75,8.77-7.4,10.25-1.28.69-6.76,3.37-15.82.69C928.47,484.14,924.43,480.31,922.59,476.91Zm27,5.1a12.32,12.32,0,0,0,5.81-7.64,11.92,11.92,0,0,0-.8-9.45c-1.66-3-4.93-5.71-10.68-7.41-6.58-1.95-11.13-.93-13.88.73a11.68,11.68,0,0,0-5.12,7.1,12,12,0,0,0,.43,8.9c1.44,3,4.93,6.25,11.32,8.14C941.78,483.89,946.41,483.7,949.61,482Z" stroke="#FFFFFF" fill="#FFFFFF" stroke-width="0.71px"></path><path class="cls-2" d="M933.62,414.4l21.57,2.08c3.14.3,6.85.5,9.42-1.43,2-1.47,3.33-4.4,3.62-7.43a10.61,10.61,0,0,0-2-7.87c-2.11-2.32-5.63-2.92-9.07-3.25l-21.58-2.08.37-3.8,22,2.12c3.6.34,8.15,1,11.2,4.86,2.68,3.37,2.67,7.2,2.37,10.39-.56,5.75-2.69,8.5-4.22,9.86-3.11,2.7-7.64,2.89-12,2.47l-22-2.12Z" stroke="#FFFFFF" fill="#FFFFFF" stroke-width="0.71px"></path><path class="cls-2" d="M971.72,351.33l.34,3.8-36,3.18-.39-4.37,28.49-22.87-30.27,2.67-.34-3.81,36-3.17.38,4.32L941.45,354Z" stroke="#FFFFFF" fill="#FFFFFF" stroke-width="0.71px"></path><path class="cls-2" d="M936,263.37l17.79-5.13.89,3.07-6.1,1.76,0,.1a15,15,0,0,1,6.19,2.67,14.06,14.06,0,0,1,4.45,7.41c1.17,4.07,1.46,8.06-1,12.21-1,1.67-4.26,6.43-13,9-7.09,2-12.4.94-15.53-.78-2.36-1.31-5.73-4.26-7.55-10.55-1.45-5.06-.73-8.86.51-11.26a13.77,13.77,0,0,1,6.58-5.87l1.06,3.67a9.6,9.6,0,0,0-4.47,3.86c-1.32,2.32-1.47,5.53-.54,8.75,1.4,4.86,4.07,7,5.95,8,4.61,2.38,10.69.94,12.92.3,5.06-1.46,8.88-4.22,10.75-7.39a11.6,11.6,0,0,0,1-9.59,11.31,11.31,0,0,0-5.22-6.93c-3.28-1.89-7.45-1.66-10.63-.74l3.12,10.8-3.12.9Z" stroke="#FFFFFF" fill="#FFFFFF" stroke-width="0.71px"></path><path class="cls-2" d="M911,211.08l2.91-1.45,8.62,17.26,12.37-6.18-9.7-19.43,2.9-1.45,11.42,22.84-32.31,16.14L896,216.52l2.91-1.45,9.43,18.87,11.22-5.6Z" stroke="#FFFFFF" fill="#FFFFFF" stroke-width="0.71px"></path><path class="cls-1" d="M950.89,70.94a5.34,5.34,0,0,0-2.83-3.89,17.18,17.18,0,0,0-8.32-.89,48.2,48.2,0,0,0-12,3.72c-.71.35-1.24.71-2,1.06-20.17,10.44-43.52,29-68.64,52.37-25.48,23.7-52.9,52.54-80.5,83l-11.32.53c-23,1.41-46.53,4.07-70.23,7.78-52,7.79-104.73,20.7-154.44,36.8-26.54,8.67-52.37,18.22-76.61,28.48-19.1,8.14-37.5,16.63-54.66,25.48-10.79,6.9-20.35,13.62-27.6,20-15.74,13.44-20.7,24.76-4.6,31.84l4.6,2.83L438,394.51c18.4,10.79,9.9,24.06-10.62,38.57a329.14,329.14,0,0,1-45.64,25.29c-11.5,5.31-24.06,10.62-37.86,15.57-4.77,1.77-9.73,3.36-14.86,5.13-12.56,4.07-25.83,8-39.8,11.5-7.79,2.12-15.93,3.89-24.24,5.66A660.5,660.5,0,0,1,69.7,508.08c-88.1-16.09-23.53-69.52,71.83-93.23,11.67-3.54,6.72-5.66.53-5-69.35,6.19-113,33.79-131.45,52.54-6,6-9.37,11.85-10.61,17.69v8.49c7.25,35.21,107,58.74,257.05,27.25,2.65-.53,5.31-1.06,8-1.77,7.78-1.77,15.74-3.72,24.24-6,12.73-3.36,26.18-7.25,39.8-11.67,5-1.6,9.91-3.19,14.86-5,12.74-4.25,25.48-8.85,37.86-13.63,30.07-11.85,58-24.76,77.84-37.5,1.59-.89,3-1.95,4.42-2.83,31.85-22.12,37.69-44.58,18.58-55.55-6.19-3.72-12.56-7.08-18.58-10.44C424.76,351,392.74,337,415.56,321.27A339.88,339.88,0,0,1,464,293.85c22.83-10.8,48.83-20.7,76.61-29.55,47.94-15.39,101.54-27.42,154.44-35,22.11-3.18,44.22-5.66,65.63-7.25L701.62,291.9c-1.94,1.24-4.24,2.3-6.54,3.54-35.21,17.16-97.3,27.42-104.38,20.7-8.49-8.14,25.83-13.8,25.3-20.35-.35-4.6-16.45-3-22.29.18C579,301.81,561,312.78,563.63,322c6.2,21.4,80.67.17,121.89-7.79-37.5,52.19-66,93.06-102.6,146.66-18,26.18-1.42,29.19,10.43,21.94,34.15-21.23,75.37-54.67,101.73-71,2.3-1.41,4.6-2.83,6.54-3.89-13.62,56.79,9.91,80.85,63.69,60.33,4.78-1.95,9.73-4.07,15-6.72,21-10.27,47.94-30.61,76.78-55.91,7.78-6.72,15.92-14,23.88-21.4,3.54-3.19-2.65-10.44-7.25-6.9-5.67,4.42-11.15,8.67-16.63,12.91-29.37,22.65-56.08,41.57-84.39,58q-4,2.11-7.43,3.71c-37.33,17-51.83-13.09-21.76-51.65,35.56-45.82,4.25-40-23.35-22.47-6.37,4.07-15.22,9.91-25.12,16.45-31.49,21.05-73.07,49.36-76.78,51.13-4.78,2.48-5.31,1.59-2.48-3.18,24.77-39.46,50.07-79.44,79.26-116.06,6-7.61,12-14.86,18.4-22.11,19.81-7.43,37-14.33,51.83-20.88,100.31-45.11,86.33-71.65,29.9-76.78,19.1-24.23,40.87-49.35,61.92-70.41,25.29-25.12,49.53-44.58,67.4-49.71a19,19,0,0,0,3.19-.18,50.7,50.7,0,0,0,12-2.12,22.83,22.83,0,0,0,8.32-4.6C950.54,76.78,951.6,73.77,950.89,70.94ZM765.31,264.66c-11,6.9-22.64,12.38-31.14,14.5l31.14-37.86,15.57-19.1C812,225.91,790.43,248.91,765.31,264.66Z" fill="#FFFFFF"></path></g></g></svg>