<svg width="19" height="18" viewBox="0 0 19 18" fill="none" xmlns="http://www.w3.org/2000/svg">
<path d="M17.8125 2.1875H14.375V0H13.125V2.1875H5.625V0H4.375V2.1875H0.9375C0.68895 2.18779 0.45066 2.28665 0.274907 2.46241C0.099154 2.63816 0.000289 2.87645 0 3.125V16.25C0.000289 16.4986 0.099154 16.7368 0.274907 16.9126C0.45066 17.0883 0.68895 17.1872 0.9375 17.1875H17.8125C18.0611 17.1872 18.2993 17.0883 18.4751 16.9126C18.6508 16.7368 18.7497 16.4986 18.75 16.25V3.125C18.7497 2.87645 18.6508 2.63816 18.4751 2.46241C18.2993 2.28665 18.0611 2.18779 17.8125 2.1875ZM17.5 15.9375H1.25V3.4375H4.375V5H5.625V3.4375H13.125V5H14.375V3.4375H17.5V15.9375Z" fill="#909090"/>
<path d="M3.75 7.1875H5V8.4375H3.75V7.1875ZM7.1875 7.1875H8.4375V8.4375H7.1875V7.1875ZM10.3125 7.1875H11.5625V8.4375H10.3125V7.1875ZM13.75 7.1875H15V8.4375H13.75V7.1875ZM3.75 10H5V11.25H3.75V10ZM7.1875 10H8.4375V11.25H7.1875V10ZM10.3125 10H11.5625V11.25H10.3125V10ZM13.75 10H15V11.25H13.75V10ZM3.75 12.8125H5V14.0625H3.75V12.8125ZM7.1875 12.8125H8.4375V14.0625H7.1875V12.8125ZM10.3125 12.8125H11.5625V14.0625H10.3125V12.8125ZM13.75 12.8125H15V14.0625H13.75V12.8125Z" fill="#909090"/>
</svg>
