<svg xmlns="http://www.w3.org/2000/svg" viewBox="0 0 5 11" fill="none">
<path d="M3.99203 5.50002L0.0998645 9.4999C0.0678196 9.53213 0.0424858 9.5704 0.0253287 9.61249C0.00817112 9.65458 -0.000469174 9.69965 -9.15229e-05 9.7451C0.000286128 9.79055 0.00967362 9.83548 0.0275278 9.87728C0.045382 9.91908 0.0713487 9.95692 0.103924 9.98862C0.1365 10.0203 0.175039 10.0452 0.21731 10.0619C0.259582 10.0786 0.304747 10.0868 0.350191 10.0859C0.395635 10.0851 0.440455 10.0752 0.48206 10.0569C0.523665 10.0386 0.561227 10.0122 0.592573 9.97931L4.71757 5.73973C4.78001 5.67556 4.81494 5.58956 4.81494 5.50002C4.81494 5.41049 4.78001 5.32449 4.71757 5.26031L0.592573 1.02073C0.561228 0.987816 0.523666 0.961445 0.482061 0.943144C0.440456 0.924842 0.395635 0.914974 0.350191 0.914108C0.304747 0.913243 0.259582 0.921399 0.217311 0.938103C0.17504 0.954808 0.136501 0.97973 0.103925 1.01143C0.0713495 1.04312 0.0453828 1.08097 0.0275286 1.12277C0.00967438 1.16456 0.000286878 1.20949 -9.07807e-05 1.25494C-0.00046844 1.30039 0.00817185 1.34547 0.0253294 1.38755C0.0424865 1.42964 0.0678203 1.46791 0.0998652 1.50015L3.99203 5.50002Z" fill="#5C5C5C"/>
</svg>