<svg width="19" height="17" viewBox="0 0 19 17" fill="none" xmlns="http://www.w3.org/2000/svg">
<path fill-rule="evenodd" clip-rule="evenodd" d="M14.0053 0C15.2625 0 16.4719 0.49687 17.3616 1.38844C18.2522 2.27813 18.75 3.47813 18.75 4.73438V12.1406C18.75 14.7562 16.6219 16.875 14.0053 16.875H4.74375C2.12719 16.875 0 14.7562 0 12.1406V4.73438C0 2.11875 2.11781 0 4.74375 0H14.0053ZM15.4964 6.13131L15.5714 6.05631C15.7955 5.78444 15.7955 5.39069 15.5611 5.11881C15.4308 4.97913 15.2518 4.89381 15.0652 4.87506C14.8683 4.86475 14.6808 4.93131 14.5393 5.06256L10.3121 8.4376C9.7683 8.8885 8.9893 8.8885 8.4371 8.4376L4.21832 5.06256C3.92676 4.84694 3.52363 4.87506 3.28082 5.12819C3.02769 5.38131 2.99957 5.78444 3.21426 6.06569L3.33707 6.18756L7.60269 9.5157C8.1277 9.9282 8.7643 10.1532 9.4308 10.1532C10.0955 10.1532 10.7433 9.9282 11.2674 9.5157L15.4964 6.13131Z" fill="black"/>
</svg>
