<svg width="16" height="19" viewBox="0 0 16 19" fill="none" xmlns="http://www.w3.org/2000/svg">
<path fill-rule="evenodd" clip-rule="evenodd" d="M0 7.7979C0 3.48552 3.60364 0 7.96265 0C12.3339 0 15.9375 3.48552 15.9375 7.7979C15.9375 9.971 15.1472 11.9884 13.8465 13.6984C12.4114 15.5845 10.6426 17.2279 8.65175 18.5179C8.19615 18.816 7.78485 18.8385 7.28475 18.5179C5.28257 17.2279 3.51383 15.5845 2.09109 13.6984C0.78936 11.9884 0 9.971 0 7.7979ZM5.33789 8.04094C5.33789 9.4856 6.51673 10.6218 7.96215 10.6218C9.40855 10.6218 10.5988 9.4856 10.5988 8.04094C10.5988 6.60754 9.40855 5.41602 7.96215 5.41602C6.51673 5.41602 5.33789 6.60754 5.33789 8.04094Z" fill="black"/>
</svg>
