<svg xmlns="http://www.w3.org/2000/svg" width="17" height="17" viewBox="0 0 17 17" fill="none">
  <path fill-rule="evenodd" clip-rule="evenodd" d="M9.77843 3.77739C9.77843 2.47405 10.8409 1.41651 12.1499 1.41651C12.4607 1.41577 12.7686 1.47624 13.056 1.59448C13.3434 1.71272 13.6047 1.88642 13.825 2.10565C14.0453 2.32487 14.2202 2.58534 14.3398 2.87218C14.4594 3.15902 14.5214 3.46661 14.5221 3.77739C14.5221 5.08143 13.4596 6.13897 12.1499 6.13897C11.8358 6.13936 11.5248 6.07731 11.2349 5.95644C10.945 5.83557 10.682 5.65828 10.4613 5.43489L7.17814 7.67039C7.26957 8.12584 7.22473 8.59815 7.04922 9.02826L10.649 11.3941C11.073 11.0483 11.6035 10.8599 12.1506 10.8607C12.4614 10.8601 12.7693 10.9206 13.0567 11.039C13.344 11.1573 13.6053 11.3311 13.8255 11.5504C14.0457 11.7696 14.2206 12.0302 14.3401 12.317C14.4596 12.6039 14.5215 12.9115 14.5221 13.2223C14.5221 14.5256 13.4596 15.5832 12.1499 15.5832C11.5224 15.5845 10.92 15.3365 10.4753 14.8938C10.0306 14.4511 9.77993 13.8498 9.77843 13.2223C9.77788 12.8913 9.84765 12.5639 9.98314 12.2618L6.41172 9.91651C5.97922 10.2926 5.4251 10.4992 4.85197 10.4981C4.54116 10.4988 4.23326 10.4383 3.94584 10.32C3.65843 10.2017 3.39714 10.0279 3.17691 9.80862C2.95668 9.58931 2.78182 9.32875 2.66232 9.04184C2.54282 8.75492 2.48103 8.44727 2.48047 8.13647C2.48112 7.82572 2.54298 7.51815 2.66252 7.23132C2.78206 6.94448 2.95694 6.68401 3.17716 6.46477C3.39738 6.24553 3.65864 6.07183 3.94601 5.95358C4.23338 5.83533 4.54122 5.77485 4.85197 5.77559C5.60564 5.77559 6.27572 6.1248 6.70993 6.6688L9.89247 4.50201C9.81675 4.26793 9.77827 4.02341 9.77843 3.77739Z" fill="white"/>
</svg>