<svg width="6" height="6" viewBox="0 0 6 6" fill="none" xmlns="http://www.w3.org/2000/svg">
<path fill-rule="evenodd" clip-rule="evenodd" d="M0.139917 5.37134C0.0539973 5.28539 0.0057275 5.16884 0.0057275 5.0473C0.0057275 4.92577 0.0539973 4.80921 0.139917 4.72326L2.10755 2.75564L0.139917 0.788007C0.0961473 0.745727 0.0612273 0.695157 0.0372073 0.639237C0.0131873 0.583317 0.000547375 0.523177 1.73752e-05 0.462317C-0.000512625 0.401457 0.0110874 0.341107 0.0341274 0.284777C0.0571774 0.228457 0.0912075 0.177278 0.134237 0.134248C0.177277 0.0912075 0.228447 0.0571774 0.284777 0.0341274C0.341107 0.0110874 0.401457 -0.000512625 0.462317 1.73752e-05C0.523167 0.000547375 0.583317 0.0131873 0.639227 0.0372073C0.695147 0.0612373 0.745727 0.0961474 0.788007 0.139927L3.07967 2.43159C3.1656 2.51754 3.21387 2.6341 3.21387 2.75564C3.21387 2.87717 3.1656 2.99373 3.07967 3.07968L0.788007 5.37134C0.702057 5.45727 0.585498 5.50554 0.463968 5.50554C0.342428 5.50554 0.225867 5.45727 0.139917 5.37134ZM2.88992 5.37134C2.804 5.28539 2.75573 5.16884 2.75573 5.0473C2.75573 4.92577 2.804 4.80921 2.88992 4.72326L4.85755 2.75564L2.88992 0.788007C2.80644 0.701568 2.76024 0.585787 2.76128 0.465617C2.76233 0.345447 2.81053 0.230487 2.89551 0.145507C2.98049 0.0605273 3.09544 0.0123274 3.21562 0.0112874C3.33579 0.0102374 3.45156 0.0564374 3.53801 0.139927L5.82968 2.43159C5.9156 2.51754 5.96387 2.6341 5.96387 2.75564C5.96387 2.87717 5.9156 2.99373 5.82968 3.07968L3.53801 5.37134C3.45206 5.45727 3.3355 5.50554 3.21397 5.50554C3.09243 5.50554 2.97587 5.45727 2.88992 5.37134Z" fill="#4D66D9"/>
</svg>
